:SAMPLES-PER-SECOND 30
:FULLY-SPECIFIED
:DEGREES
136
root  2.79726663 37.03444473 4.199110992 -12.99902344 -48.57499695 17.26599121
lowerback  14.52250004 6.490499973 3.7901299
upperback  5.162950039 9.034399986 2.47942996
thorax  -2.419960022 4.440889835 -0.9607599974
lowerneck  6.797520161 -5.734630108 -8.78689003
upperneck  9.601289749 -8.000729561 -3.080869913
head  2.139659882 -4.355889797 0.4777610004
lclavicle  0 -9.442270133e-015 7.951389973e-016
lhumerus  -12.85369968 -15.63619995 76.10639954
lradius  2.068756407e-031 -2.861658779e-031 125.8639984
lwrist  -7.062250077e-031 7.062250077e-031 56.52399826
lhand  -1.496451383e-031 -27.76390076 20.11240005
lfingers  90 7.125020027 -90
lthumb  89.89689403 5.08795885 91.16245106
rclavicle  0 -9.442270133e-015 7.951389973e-016
rhumerus  24.99790001 -0.2288410068 -72.7036972
rradius  1.318776134e-031 3.27561804e-031 68.07009888
rwrist  3.531125038e-031 7.062250077e-031 -61.98529816
rhand  -7.920061211e-032 -33.2840004 9.303460121
rfingers  -90 -7.125020027 -90
rthumb  -92.93752616 -24.25625642 -97.11982154
rfemur  1.363590002 9.032799721 0.8350099921
rtibia  -0 0 58.96670151
rfoot  -0 -21.6984005 -10.65540028
rtoes  5.373923086 19.29304026 -105.8922705
lfemur  -33.08100128 -10.5468998 -13.35109997
ltibia  -0 0 62.52199936
lfoot  4.49090581e-032 -10.62520027 5.239600182
ltoes  -4.250644065 -19.5611806 -102.515957
137
root  2.904600046 36.88733259 4.113022361 -12.96801758 -48.60499573 17.73602295
lowerback  14.25570011 6.618850231 3.393059969
upperback  4.981790066 9.146940231 2.221899986
thorax  -2.484620094 4.497950077 -1.011129975
lowerneck  6.537970066 -5.70028019 -8.912779808
upperneck  9.127900124 -7.959340096 -2.86067009
head  2.042500019 -4.318170071 0.5701349974
lclavicle  0 -9.442270133e-015 7.951389973e-016
lhumerus  -14.21870041 -15.07139969 76.06800079
lradius  2.103761017e-031 -2.836024263e-031 126.5680008
lwrist  -7.062250077e-031 3.531125038e-031 55.45199966
lhand  -1.496451383e-031 -27.76390076 20.11240005
lfingers  90 7.125020027 -90
lthumb  89.89689403 5.08795885 91.16245106
rclavicle  0 -9.442270133e-015 7.951389973e-016
rhumerus  22.53000069 -0.5537409782 -73.31700134
rradius  1.266293594e-031 3.296262212e-031 68.98519897
rwrist  7.062250077e-031 1.059337512e-030 -61.19680023
rhand  -7.920061211e-032 -33.2840004 9.303460121
rfingers  -90 -7.125020027 -90
rthumb  -92.93752616 -24.25625642 -97.11982154
rfemur  1.108240008 8.810460091 0.5789549947
rtibia  -0 0 58.97529984
rfoot  -0 -23.31080055 -11.76939964
rtoes  5.373923086 19.29304026 -105.8922705
lfemur  -31.72410011 -10.51379967 -12.73729992
ltibia  -0 0 59.9776001
lfoot  6.80480365e-032 -13.35229969 2.988320112
ltoes  -4.250644065 -19.5611806 -102.515957
138
root  3.01622218 36.72488956 4.025977803 -12.74499512 -48.70399475 18.14398193
lowerback  13.87349987 6.754640102 3.012830019
upperback  4.782710075 9.27052021 1.984519958
thorax  -2.50658989 4.561910152 -1.037610054
lowerneck  6.279550076 -5.672130108 -9.081190109
upperneck  8.6105299 -7.928750038 -2.640490055
head  1.933730006 -4.285349846 0.6701279879
lclavicle  0 -9.442270133e-015 7.951389973e-016
lhumerus  -15.65209961 -14.5763998 76.16600037
lradius  2.142516357e-031 -2.806860826e-031 127.3550034
lwrist  -7.062250077e-031 5.296687558e-031 53.9720993
lhand  -1.496451383e-031 -27.76390076 20.11240005
lfingers  90 7.125020027 -90
lthumb  89.89689403 5.08795885 91.16245106
rclavicle  0 -9.442270133e-015 7.951389973e-016
rhumerus  19.97240067 -0.8633779883 -73.88739777
rradius  1.204993743e-031 3.319161659e-031 70.04699707
rwrist  7.062250077e-031 1.059337512e-030 -60.13729858
rhand  -7.920061211e-032 -33.2840004 9.303460121
rfingers  -90 -7.125020027 -90
rthumb  -92.93752616 -24.25625642 -97.11982154
rfemur  0.9142370224 8.814109802 0.4747810066
rtibia  -0 0 58.75149918
rfoot  -0 -25.64959908 -12.87300014
rtoes  5.373923086 19.29304026 -105.8922705
lfemur  -30.82530022 -10.19929981 -12.22900009
ltibia  -0 0 57.3553009
lfoot  5.162627089e-032 -15.87839985 0.5896980166
ltoes  -4.250644065 -19.5611806 -102.515957
139
root  3.134799942 36.57666604 3.929244439 -12.61199951 -48.83599854 18.78997803
lowerback  13.51720047 6.874700069 2.498179913
upperback  4.611299992 9.355239868 1.679520011
thorax  -2.524300098 4.606840134 -1.056130052
lowerneck  5.821720123 -5.632430077 -9.2791996
upperneck  8.102199554 -7.86218977 -2.365720034
head  1.865339994 -4.236070156 0.7860289812
lclavicle  0 -9.442270133e-015 7.951389973e-016
lhumerus  -17.02980042 -14.09570026 76.26460266
lradius  2.179558499e-031 -2.778195239e-031 128.1150055
lwrist  -7.062250077e-031 5.296687558e-031 51.8445015
lhand  -1.496451383e-031 -27.76390076 20.11240005
lfingers  90 7.125020027 -90
lthumb  89.89689403 5.08795885 91.16245106
rclavicle  0 -9.442270133e-015 7.951389973e-016
rhumerus  17.18300056 -0.7564929724 -74.05249786
rradius  1.128271127e-031 3.34601977e-031 71.36599731
rwrist  7.062250077e-031 7.062250077e-031 -59.38700104
rhand  -7.920061211e-032 -33.2840004 9.303460121
rfingers  -90 -7.125020027 -90
rthumb  -92.93752616 -24.25625642 -97.11982154
rfemur  0.7339059711 8.974829674 0.2741430104
rtibia  -0 0 58.24829865
rfoot  -0 -28.09449959 -13.95409966
rtoes  5.373923086 19.29304026 -105.8922705
lfemur  -30.47310066 -9.398509979 -12.20890045
ltibia  -0 0 55.19350052
lfoot  4.612761678e-032 -16.88489914 -2.824820042
ltoes  -4.250644065 -19.5611806 -102.515957
